<svg width="17" height="17" viewBox="0 0 17 17" fill="none" xmlns="http://www.w3.org/2000/svg">
<path d="M6.01852 1.89417V3.93003" stroke="#787486" stroke-width="1.3" stroke-miterlimit="10" stroke-linecap="round" stroke-linejoin="round"/>
<path d="M11.3482 1.89417V3.93003" stroke="#787486" stroke-width="1.3" stroke-miterlimit="10" stroke-linecap="round" stroke-linejoin="round"/>
<path d="M11.3481 2.91211C13.5666 3.03426 14.6792 3.89611 14.6792 7.08563V11.2795C14.6792 14.0754 14.013 15.4734 10.6819 15.4734H6.68472C3.3537 15.4734 2.6875 14.0754 2.6875 11.2795V7.08563C2.6875 3.89611 3.80006 3.04105 6.01852 2.91211H11.3481Z" stroke="#787486" stroke-width="1.3" stroke-miterlimit="10" stroke-linecap="round" stroke-linejoin="round"/>
<path d="M14.5126 12.4807H2.85406" stroke="#787486" stroke-width="1.3" stroke-miterlimit="10" stroke-linecap="round" stroke-linejoin="round"/>
<path d="M8.68336 6.13556C7.86393 6.13556 7.17108 6.59024 7.17108 7.47244C7.17108 7.89319 7.36428 8.21214 7.65741 8.41573C7.25102 8.66003 7.01785 9.05363 7.01785 9.51509C7.01785 10.3566 7.65075 10.8791 8.68336 10.8791C9.70932 10.8791 10.3489 10.3566 10.3489 9.51509C10.3489 9.05363 10.1157 8.65325 9.70265 8.41573C10.0024 8.20535 10.189 7.89319 10.189 7.47244C10.189 6.59024 9.50279 6.13556 8.68336 6.13556ZM8.68336 8.06284C8.33694 8.06284 8.08378 7.85247 8.08378 7.51995C8.08378 7.18064 8.33694 6.98384 8.68336 6.98384C9.02979 6.98384 9.28295 7.18064 9.28295 7.51995C9.28295 7.85247 9.02979 8.06284 8.68336 8.06284ZM8.68336 10.0376C8.24367 10.0376 7.92389 9.81369 7.92389 9.40652C7.92389 8.99934 8.24367 8.78218 8.68336 8.78218C9.12306 8.78218 9.44283 9.00613 9.44283 9.40652C9.44283 9.81369 9.12306 10.0376 8.68336 10.0376Z" fill="#787486"/>
</svg>
