<svg width="121" height="44" viewBox="0 0 121 44" fill="none" xmlns="http://www.w3.org/2000/svg">
<path d="M18.9062 40.125H31.5104C42.0139 40.125 46.2153 36.5 46.2153 27.4375V16.5625C46.2153 7.5 42.0139 3.875 31.5104 3.875H18.9062C8.40277 3.875 4.20139 7.5 4.20139 16.5625V27.4375C4.20139 36.5 8.40277 40.125 18.9062 40.125Z" fill="#5030E5" fill-opacity="0.2"/>
<path d="M27.1199 14.46L16.2173 23.8669C15.7972 24.2294 15.3981 24.9363 15.3141 25.4438L14.7259 29.0325C14.5158 30.3375 15.5661 31.2438 17.0786 31.0625L21.238 30.555C21.8262 30.4825 22.6455 30.1381 23.0656 29.7756L33.9682 20.3687C35.8378 18.7556 36.7411 16.8706 33.9682 14.4781C31.1953 12.0675 29.0106 12.8288 27.1199 14.46Z" stroke="#5030E5" stroke-width="1.5" stroke-miterlimit="10" stroke-linecap="round" stroke-linejoin="round"/>
<path d="M25.5654 15.8013C26.4898 18.6469 29.0736 20.8944 32.3927 21.6919" stroke="#5030E5" stroke-width="1.5" stroke-miterlimit="10" stroke-linecap="round" stroke-linejoin="round"/>
<path d="M89.4896 40.125H102.094C112.597 40.125 116.799 36.5 116.799 27.4375V16.5625C116.799 7.5 112.597 3.875 102.094 3.875H89.4896C78.9861 3.875 74.7847 7.5 74.7847 16.5625V27.4375C74.7847 36.5 78.9861 40.125 89.4896 40.125Z" fill="#5030E5" fill-opacity="0.2"/>
<path d="M99.1416 28.1916H100.833C104.76 28.1916 107.986 25.4378 107.986 22C107.986 18.5621 104.76 15.8083 100.833 15.8083H99.1528C98.6195 15.8083 98.1625 16.1853 98.1625 16.6833C98.1625 17.1825 98.6321 17.5583 99.1528 17.5583H100.833C103.707 17.5583 106.005 19.5702 106.005 22C106.005 24.4298 103.707 26.4416 100.833 26.4416H99.1416C98.6209 26.4416 98.1513 26.8175 98.1513 27.3166C98.1513 27.8158 98.6209 28.1916 99.1416 28.1916Z" fill="#5030E5" stroke="#5030E5" stroke-width="0.3"/>
<path d="M90.75 28.1916H92.4306C92.9512 28.1916 93.4208 27.8158 93.4208 27.3166C93.4208 26.8175 92.9512 26.4416 92.4306 26.4416H90.75C87.8759 26.4416 85.5782 24.4298 85.5782 22C85.5782 19.5702 87.8759 17.5583 90.75 17.5583H92.4306C92.9512 17.5583 93.4208 17.1825 93.4208 16.6833C93.4208 16.1841 92.9512 15.8083 92.4306 15.8083H90.75C86.8234 15.8083 83.5977 18.5621 83.5977 22C83.5977 25.4378 86.8234 28.1916 90.75 28.1916Z" fill="#5030E5" stroke="#5030E5" stroke-width="0.3"/>
<path d="M91.3102 22.875H100.273C100.794 22.875 101.263 22.4992 101.263 22C101.263 21.5008 100.794 21.125 100.273 21.125H91.3102C90.7895 21.125 90.3199 21.5008 90.3199 22C90.3199 22.4992 90.7895 22.875 91.3102 22.875Z" fill="#5030E5" stroke="#5030E5" stroke-width="0.3"/>
</svg>
