<svg width="49" height="24" viewBox="0 0 49 24" fill="none" xmlns="http://www.w3.org/2000/svg">
<rect y="0.5" width="23.6145" height="23" rx="6" fill="#5030E5"/>
<path d="M15.3051 12.6469L8.30934 12.6469C7.64518 12.6469 7.37952 12.92 7.37952 13.61L7.37952 15.3494C7.37952 16.0394 7.64518 16.3125 8.30934 16.3125L15.3051 16.3125C15.9693 16.3125 16.2349 16.0394 16.2349 15.3494L16.2349 13.61C16.2349 12.92 15.9693 12.6469 15.3051 12.6469Z" fill="white"/>
<path d="M15.3051 7.68749L8.30934 7.68749C7.64518 7.68749 7.37952 7.96062 7.37952 8.65062L7.37952 10.39C7.37952 11.0752 7.64518 11.3531 8.30934 11.3531L15.3051 11.3531C15.9693 11.3531 16.2349 11.08 16.2349 10.39L16.2349 8.65062C16.2349 7.96062 15.9693 7.68749 15.3051 7.68749Z" fill="white"/>
<path d="M45.5729 10.85C46.3881 10.85 47.0489 10.2064 47.0489 9.41246C47.0489 8.61855 46.3881 7.97496 45.5729 7.97496C44.7578 7.97496 44.097 8.61855 44.097 9.41246C44.097 10.2064 44.7578 10.85 45.5729 10.85Z" stroke="#787486" stroke-width="1.5" stroke-miterlimit="10" stroke-linecap="round" stroke-linejoin="round"/>
<path d="M39.8494 10.85C40.6646 10.85 41.3253 10.2064 41.3253 9.41246C41.3253 8.61855 40.6646 7.97496 39.8494 7.97496C39.0343 7.97496 38.3735 8.61855 38.3735 9.41246C38.3735 10.2064 39.0343 10.85 39.8494 10.85Z" stroke="#787486" stroke-width="1.5" stroke-miterlimit="10" stroke-linecap="round" stroke-linejoin="round"/>
<path d="M45.5729 16.6C46.3881 16.6 47.0489 15.9564 47.0489 15.1625C47.0489 14.3686 46.3881 13.725 45.5729 13.725C44.7578 13.725 44.097 14.3686 44.097 15.1625C44.097 15.9564 44.7578 16.6 45.5729 16.6Z" stroke="#787486" stroke-width="1.5" stroke-miterlimit="10" stroke-linecap="round" stroke-linejoin="round"/>
<path d="M39.8494 16.6C40.6646 16.6 41.3253 15.9564 41.3253 15.1625C41.3253 14.3686 40.6646 13.725 39.8494 13.725C39.0343 13.725 38.3735 14.3686 38.3735 15.1625C38.3735 15.9564 39.0343 16.6 39.8494 16.6Z" stroke="#787486" stroke-width="1.5" stroke-miterlimit="10" stroke-linecap="round" stroke-linejoin="round"/>
</svg>
