<svg width="18" height="18" viewBox="0 0 18 18" fill="none" xmlns="http://www.w3.org/2000/svg">
<path d="M15.0531 8.85756L14.8437 12.8521C14.7042 15.5151 14.0035 16.146 11.3405 16.0064L4.683 15.6575C2.01999 15.5179 1.38913 14.8173 1.52869 12.1543L1.87759 5.49673C2.01716 2.83372 2.7178 2.20286 5.38081 2.34242L6.37944 2.39476C7.37807 2.44709 7.58242 2.75154 7.93538 3.2774L8.86423 4.66124C9.09977 5.00738 9.23577 5.21478 9.90152 5.24967L11.8988 5.35434C14.5618 5.4939 15.1927 6.19455 15.0531 8.85756Z" stroke="#787486" stroke-miterlimit="10"/>
<path d="M6.37936 2.39474L12.3711 2.70876C13.7026 2.77854 14.3335 3.47919 14.2637 4.81069L14.2156 5.72943" stroke="#787486" stroke-miterlimit="10" stroke-linecap="round" stroke-linejoin="round"/>
<path d="M9.9203 11.2589L6.59154 11.0844" stroke="#787486" stroke-miterlimit="10" stroke-linecap="round" stroke-linejoin="round"/>
</svg>
