<svg width="18" height="18" viewBox="0 0 18 18" fill="none" xmlns="http://www.w3.org/2000/svg">
<path d="M8.46979 16.527C8.01042 16.5029 7.58989 16.2472 7.30493 15.8251L6.37608 14.4412C6.3575 14.4136 6.27936 14.3761 6.24642 14.3677L5.91354 14.3502C3.13735 14.2047 1.45914 13.3624 1.65522 9.62089L1.82967 6.29213C1.98389 3.3495 3.61639 1.87959 6.55902 2.03381L11.885 2.31293C14.8277 2.46715 16.2976 4.09965 16.1434 7.04228L15.9689 10.371C15.8147 13.3137 14.1822 14.7836 11.2396 14.6294L10.9067 14.6119C10.8534 14.6091 10.8054 14.6333 10.77 14.6715L9.70164 15.9507C9.37411 16.3407 8.92916 16.5511 8.46979 16.527ZM6.50668 3.03244C4.12329 2.90753 2.95321 3.96107 2.8283 6.34446L2.65385 9.67323C2.49614 12.6824 3.50259 13.2225 5.96588 13.3516L6.29875 13.3691C6.63829 13.3868 7.01431 13.6002 7.20638 13.8839L8.13523 15.2678C8.3522 15.5862 8.68507 15.6037 8.93414 15.3096L10.0025 14.0305C10.2376 13.7491 10.5929 13.5941 10.959 13.6133L11.2919 13.6307C13.6753 13.7556 14.8454 12.7021 14.9703 10.3187L15.1447 6.98994C15.2696 4.60654 14.2161 3.43647 11.8327 3.31156L6.50668 3.03244Z" fill="#787486"/>
<path d="M8.84696 9.3302C8.47414 9.31066 8.19691 8.99572 8.2161 8.62956C8.23529 8.2634 8.55058 7.97951 8.91674 7.9987C9.28291 8.01789 9.5668 8.33318 9.54761 8.69934C9.52842 9.0655 9.21979 9.34974 8.84696 9.3302Z" fill="#787486"/>
<path d="M11.51 9.46978C11.1372 9.45024 10.8599 9.1353 10.8791 8.76913C10.8983 8.40297 11.2136 8.11908 11.5798 8.13827C11.9459 8.15746 12.2298 8.47275 12.2106 8.83891C12.1914 9.20508 11.8828 9.48931 11.51 9.46978Z" fill="#787486"/>
<path d="M6.18395 9.19065C5.81113 9.17111 5.5339 8.85617 5.55309 8.49C5.57228 8.12384 5.88757 7.83995 6.25374 7.85914C6.6199 7.87833 6.90379 8.19362 6.8846 8.55978C6.86541 8.92595 6.55678 9.21018 6.18395 9.19065Z" fill="#787486"/>
</svg>
