<svg width="17" height="16" viewBox="0 0 17 16" fill="none" xmlns="http://www.w3.org/2000/svg">
<path d="M8.49998 15.2067C8.03998 15.2067 7.60665 14.9733 7.29998 14.5667L6.29998 13.2333C6.27998 13.2067 6.19998 13.1733 6.16665 13.1667H5.83331C3.05331 13.1667 1.33331 12.4133 1.33331 8.66668V5.33334C1.33331 2.38668 2.88665 0.833344 5.83331 0.833344H11.1666C14.1133 0.833344 15.6666 2.38668 15.6666 5.33334V8.66668C15.6666 11.6133 14.1133 13.1667 11.1666 13.1667H10.8333C10.78 13.1667 10.7333 13.1933 10.7 13.2333L9.69998 14.5667C9.39331 14.9733 8.95998 15.2067 8.49998 15.2067ZM5.83331 1.83334C3.44665 1.83334 2.33331 2.94668 2.33331 5.33334V8.66668C2.33331 11.68 3.36665 12.1667 5.83331 12.1667H6.16665C6.50665 12.1667 6.89331 12.36 7.09998 12.6333L8.09998 13.9667C8.33331 14.2733 8.66665 14.2733 8.89998 13.9667L9.89998 12.6333C10.12 12.34 10.4666 12.1667 10.8333 12.1667H11.1666C13.5533 12.1667 14.6666 11.0533 14.6666 8.66668V5.33334C14.6666 2.94668 13.5533 1.83334 11.1666 1.83334H5.83331Z" fill="#787486"/>
<path d="M8.49998 7.99999C8.12665 7.99999 7.83331 7.69999 7.83331 7.33332C7.83331 6.96666 8.13331 6.66666 8.49998 6.66666C8.86665 6.66666 9.16665 6.96666 9.16665 7.33332C9.16665 7.69999 8.87331 7.99999 8.49998 7.99999Z" fill="#787486"/>
<path d="M11.1667 7.99999C10.7933 7.99999 10.5 7.69999 10.5 7.33332C10.5 6.96666 10.8 6.66666 11.1667 6.66666C11.5333 6.66666 11.8333 6.96666 11.8333 7.33332C11.8333 7.69999 11.54 7.99999 11.1667 7.99999Z" fill="#787486"/>
<path d="M5.83335 7.99999C5.46002 7.99999 5.16669 7.69999 5.16669 7.33332C5.16669 6.96666 5.46669 6.66666 5.83335 6.66666C6.20002 6.66666 6.50002 6.96666 6.50002 7.33332C6.50002 7.69999 6.20669 7.99999 5.83335 7.99999Z" fill="#787486"/>
</svg>
