<svg width="17" height="16" viewBox="0 0 17 16" fill="none" xmlns="http://www.w3.org/2000/svg">
<path d="M14.8334 7.33334V11.3333C14.8334 14 14.1667 14.6667 11.5001 14.6667H4.83339C2.16673 14.6667 1.50006 14 1.50006 11.3333V4.66668C1.50006 2.00001 2.16673 1.33334 4.83339 1.33334H5.83339C6.83339 1.33334 7.05339 1.62668 7.43339 2.13334L8.43339 3.46668C8.68673 3.80001 8.83339 4.00001 9.50006 4.00001H11.5001C14.1667 4.00001 14.8334 4.66668 14.8334 7.33334Z" stroke="#787486" stroke-miterlimit="10"/>
<path d="M5.83331 1.33334H11.8333C13.1666 1.33334 13.8333 2.00001 13.8333 3.33334V4.25334" stroke="#787486" stroke-miterlimit="10" stroke-linecap="round" stroke-linejoin="round"/>
<path d="M9.83333 10H6.5" stroke="#787486" stroke-miterlimit="10" stroke-linecap="round" stroke-linejoin="round"/>
</svg>
