<svg width="17" height="16" viewBox="0 0 17 16" fill="none" xmlns="http://www.w3.org/2000/svg">
<path d="M8.5 15.2067C8.04 15.2067 7.60666 14.9733 7.29999 14.5667L6.29999 13.2333C6.27999 13.2067 6.2 13.1733 6.16666 13.1667H5.83333C3.05333 13.1667 1.33333 12.4133 1.33333 8.66667V5.33334C1.33333 2.38667 2.88666 0.833336 5.83333 0.833336H11.1667C14.1133 0.833336 15.6667 2.38667 15.6667 5.33334V8.66667C15.6667 11.6133 14.1133 13.1667 11.1667 13.1667H10.8333C10.78 13.1667 10.7333 13.1933 10.7 13.2333L9.7 14.5667C9.39333 14.9733 8.96 15.2067 8.5 15.2067ZM5.83333 1.83334C3.44666 1.83334 2.33333 2.94667 2.33333 5.33334V8.66667C2.33333 11.68 3.36666 12.1667 5.83333 12.1667H6.16666C6.50666 12.1667 6.89333 12.36 7.09999 12.6333L8.09999 13.9667C8.33333 14.2733 8.66666 14.2733 8.9 13.9667L9.9 12.6333C10.12 12.34 10.4667 12.1667 10.8333 12.1667H11.1667C13.5533 12.1667 14.6667 11.0533 14.6667 8.66667V5.33334C14.6667 2.94667 13.5533 1.83334 11.1667 1.83334H5.83333Z" fill="#787486"/>
<path d="M8.49999 8C8.12666 8 7.83333 7.7 7.83333 7.33333C7.83333 6.96666 8.13333 6.66666 8.49999 6.66666C8.86666 6.66666 9.16666 6.96666 9.16666 7.33333C9.16666 7.7 8.87333 8 8.49999 8Z" fill="#787486"/>
<path d="M11.1667 8C10.7933 8 10.5 7.7 10.5 7.33333C10.5 6.96666 10.8 6.66666 11.1667 6.66666C11.5333 6.66666 11.8333 6.96666 11.8333 7.33333C11.8333 7.7 11.54 8 11.1667 8Z" fill="#787486"/>
<path d="M5.83334 8C5.46001 8 5.16667 7.7 5.16667 7.33333C5.16667 6.96666 5.46667 6.66666 5.83334 6.66666C6.20001 6.66666 6.50001 6.96666 6.50001 7.33333C6.50001 7.7 6.20667 8 5.83334 8Z" fill="#787486"/>
</svg>
