<svg width="17" height="16" viewBox="0 0 17 16" fill="none" xmlns="http://www.w3.org/2000/svg">
<path d="M14.8334 7.33334V11.3333C14.8334 14 14.1668 14.6667 11.5001 14.6667H4.83342C2.16675 14.6667 1.50008 14 1.50008 11.3333V4.66667C1.50008 2 2.16675 1.33334 4.83342 1.33334H5.83342C6.83342 1.33334 7.05342 1.62667 7.43342 2.13334L8.43342 3.46667C8.68675 3.8 8.83342 4 9.50008 4H11.5001C14.1668 4 14.8334 4.66667 14.8334 7.33334Z" stroke="#787486" stroke-miterlimit="10"/>
<path d="M5.83334 1.33334H11.8333C13.1667 1.33334 13.8333 2 13.8333 3.33334V4.25334" stroke="#787486" stroke-miterlimit="10" stroke-linecap="round" stroke-linejoin="round"/>
<path d="M9.83333 10H6.5" stroke="#787486" stroke-miterlimit="10" stroke-linecap="round" stroke-linejoin="round"/>
</svg>
